# xmcd
#
# Track frame offsets:
#	150
#	28009
#	62937
#	118963
#	150345
#	176690
#	200562
#	235764
#	246314
#	295552
#	317610
#
# Disc length: 4525 seconds
#
# Revision: 1
# Processed by: cddbd v1.5.2PL0 Copyright (c) Steve Scherf et al.
# Submitted via: audiograbber 1.83.01
#
DISCID=9811ab0b
DTITLE=Grateful Dead - 79-12-07 Indiana Convention Centre, Indianopolis IN
DYEAR=1900
DGENRE=
TTITLE0=China Cat Sunflower
TTITLE1=I Know You Rider
TTITLE2=Eyes Of The World
TTITLE3=Lost Sailor
TTITLE4=Saint Of Circumstance
TTITLE5=Space
TTITLE6=Drums
TTITLE7=Space
TTITLE8=Wharf Rat
TTITLE9=Around and Around
TTITLE10=Johnny B Goode
EXTD=
EXTT0=
EXTT1=
EXTT2=
EXTT3=
EXTT4=
EXTT5=
EXTT6=
EXTT7=
EXTT8=
EXTT9=
EXTT10=
PLAYORDER=
